<?xml version="1.0" encoding="UTF-8" standalone="no"?>
<svg
   xmlns:dc="http://purl.org/dc/elements/1.1/"
   xmlns:cc="http://creativecommons.org/ns#"
   xmlns:rdf="http://www.w3.org/1999/02/22-rdf-syntax-ns#"
   xmlns:svg="http://www.w3.org/2000/svg"
   xmlns="http://www.w3.org/2000/svg"
   xmlns:sodipodi="http://sodipodi.sourceforge.net/DTD/sodipodi-0.dtd"
   xmlns:inkscape="http://www.inkscape.org/namespaces/inkscape"
   version="1.1"
   x="0px"
   y="0px"
   viewBox="0 0 100 125"
   enable-background="new 0 0 100 100"
   xml:space="preserve"
   id="svg2"
   inkscape:version="0.91 r13725"
   sodipodi:docname="keg.svg"><metadata
     id="metadata20"><rdf:RDF><cc:Work
         rdf:about=""><dc:format>image/svg+xml</dc:format><dc:type
           rdf:resource="http://purl.org/dc/dcmitype/StillImage" /><dc:title></dc:title></cc:Work></rdf:RDF></metadata><defs
     id="defs18" /><sodipodi:namedview
     pagecolor="#ffffff"
     bordercolor="#666666"
     borderopacity="1"
     objecttolerance="10"
     gridtolerance="10"
     guidetolerance="10"
     inkscape:pageopacity="0"
     inkscape:pageshadow="2"
     inkscape:window-width="1333"
     inkscape:window-height="658"
     id="namedview16"
     showgrid="false"
     inkscape:zoom="1.888"
     inkscape:cx="-20.444915"
     inkscape:cy="62.5"
     inkscape:window-x="312"
     inkscape:window-y="185"
     inkscape:window-maximized="0"
     inkscape:current-layer="svg2" /><g
     id="g4"><path
       d="M55.977,25.128H43.751c-2.082,0-3.777,1.694-3.777,3.777c0,2.082,1.694,3.776,3.777,3.776h12.226   c2.081,0,3.776-1.694,3.776-3.776C59.753,26.822,58.058,25.128,55.977,25.128z M55.977,30.099H43.751   c-0.659,0-1.195-0.535-1.195-1.194c0-0.659,0.536-1.195,1.195-1.195h12.226c0.659,0,1.194,0.536,1.194,1.195   C57.171,29.563,56.635,30.099,55.977,30.099z"
       id="path6" /><path
       d="M75.86,31.208h-1.291c-1.117,0-2.027-0.909-2.027-2.027s0.91-2.027,2.027-2.027h1.291v-9.496H54.352V9.965h-3.198V7.582   h1.907V5h-6.395v2.582h1.907v2.383h-3.198v7.692H23.867v9.496h1.291c1.118,0,2.027,0.91,2.027,2.027s-0.909,2.027-2.027,2.027   h-1.291v59.699H75.86V31.208z M26.448,42.03h46.831v13.475H26.448V42.03z M47.956,12.547h3.814v5.111h-3.814V12.547z    M26.448,33.605c1.915-0.56,3.318-2.331,3.318-4.424c0-2.094-1.403-3.865-3.318-4.425v-4.517h18.927h8.978h18.926v4.517   c-1.915,0.56-3.318,2.331-3.318,4.425c0,2.093,1.403,3.865,3.318,4.424v5.607H26.448V33.605z M26.448,58.323h46.831v13.711H26.448   V58.323z M73.279,88.325H26.448v-13.71h46.831V88.325z"
       id="path8" /><rect
       x="23.867"
       y="92.418"
       width="52.267"
       height="2.582"
       id="rect10" /></g></svg>